<svg width="131" height="37" viewBox="0 0 131 37" fill="none" xmlns="http://www.w3.org/2000/svg">
<path d="M4.824 33V31.74L4.704 31.464V29.208C4.704 28.808 4.58 28.496 4.332 28.272C4.092 28.048 3.72 27.936 3.216 27.936C2.872 27.936 2.532 27.992 2.196 28.104C1.868 28.208 1.588 28.352 1.356 28.536L0.684 27.228C1.036 26.98 1.46 26.788 1.956 26.652C2.452 26.516 2.956 26.448 3.468 26.448C4.452 26.448 5.216 26.68 5.76 27.144C6.304 27.608 6.576 28.332 6.576 29.316V33H4.824ZM2.856 33.096C2.352 33.096 1.92 33.012 1.56 32.844C1.2 32.668 0.924 32.432 0.732 32.136C0.54 31.84 0.444 31.508 0.444 31.14C0.444 30.756 0.536 30.42 0.72 30.132C0.912 29.844 1.212 29.62 1.62 29.46C2.028 29.292 2.56 29.208 3.216 29.208H4.932V30.3H3.42C2.98 30.3 2.676 30.372 2.508 30.516C2.348 30.66 2.268 30.84 2.268 31.056C2.268 31.296 2.36 31.488 2.544 31.632C2.736 31.768 2.996 31.836 3.324 31.836C3.636 31.836 3.916 31.764 4.164 31.62C4.412 31.468 4.592 31.248 4.704 30.96L4.992 31.824C4.856 32.24 4.608 32.556 4.248 32.772C3.888 32.988 3.424 33.096 2.856 33.096ZM10.9943 33.096C10.4583 33.096 9.97825 32.992 9.55425 32.784C9.13825 32.576 8.81425 32.26 8.58225 31.836C8.35025 31.404 8.23425 30.856 8.23425 30.192V26.544H10.1063V29.916C10.1063 30.452 10.2183 30.848 10.4423 31.104C10.6743 31.352 10.9983 31.476 11.4143 31.476C11.7023 31.476 11.9583 31.416 12.1823 31.296C12.4063 31.168 12.5823 30.976 12.7103 30.72C12.8383 30.456 12.9023 30.128 12.9023 29.736V26.544H14.7743V33H12.9983V31.224L13.3223 31.74C13.1063 32.188 12.7863 32.528 12.3623 32.76C11.9463 32.984 11.4903 33.096 10.9943 33.096ZM19.1485 33.096C18.3885 33.096 17.7965 32.904 17.3725 32.52C16.9485 32.128 16.7365 31.548 16.7365 30.78V25.116H18.6085V30.756C18.6085 31.028 18.6805 31.24 18.8245 31.392C18.9685 31.536 19.1645 31.608 19.4125 31.608C19.7085 31.608 19.9605 31.528 20.1685 31.368L20.6725 32.688C20.4805 32.824 20.2485 32.928 19.9765 33C19.7125 33.064 19.4365 33.096 19.1485 33.096ZM15.7405 28.128V26.688H20.2165V28.128H15.7405ZM24.5962 33.096C23.9082 33.096 23.2962 32.952 22.7602 32.664C22.2322 32.376 21.8122 31.984 21.5002 31.488C21.1962 30.984 21.0442 30.412 21.0442 29.772C21.0442 29.124 21.1962 28.552 21.5002 28.056C21.8122 27.552 22.2322 27.16 22.7602 26.88C23.2962 26.592 23.9082 26.448 24.5962 26.448C25.2762 26.448 25.8842 26.592 26.4202 26.88C26.9562 27.16 27.3762 27.548 27.6802 28.044C27.9842 28.54 28.1362 29.116 28.1362 29.772C28.1362 30.412 27.9842 30.984 27.6802 31.488C27.3762 31.984 26.9562 32.376 26.4202 32.664C25.8842 32.952 25.2762 33.096 24.5962 33.096ZM24.5962 31.56C24.9082 31.56 25.1882 31.488 25.4362 31.344C25.6842 31.2 25.8802 30.996 26.0242 30.732C26.1682 30.46 26.2402 30.14 26.2402 29.772C26.2402 29.396 26.1682 29.076 26.0242 28.812C25.8802 28.548 25.6842 28.344 25.4362 28.2C25.1882 28.056 24.9082 27.984 24.5962 27.984C24.2842 27.984 24.0042 28.056 23.7562 28.2C23.5082 28.344 23.3082 28.548 23.1562 28.812C23.0122 29.076 22.9402 29.396 22.9402 29.772C22.9402 30.14 23.0122 30.46 23.1562 30.732C23.3082 30.996 23.5082 31.2 23.7562 31.344C24.0042 31.488 24.2842 31.56 24.5962 31.56ZM29.2646 30.372V28.872H32.6606V30.372H29.2646ZM35.6863 33L32.9743 26.544H34.9063L37.1623 32.1H36.2023L38.5423 26.544H40.3423L37.6183 33H35.6863ZM41.1062 33V26.544H42.9782V33H41.1062ZM42.0422 25.644C41.6982 25.644 41.4182 25.544 41.2022 25.344C40.9862 25.144 40.8782 24.896 40.8782 24.6C40.8782 24.304 40.9862 24.056 41.2022 23.856C41.4182 23.656 41.6982 23.556 42.0422 23.556C42.3862 23.556 42.6662 23.652 42.8822 23.844C43.0982 24.028 43.2062 24.268 43.2062 24.564C43.2062 24.876 43.0982 25.136 42.8822 25.344C42.6742 25.544 42.3942 25.644 42.0422 25.644ZM44.2716 33V31.872L48.0876 27.36L48.4116 27.984H44.3556V26.544H49.9236V27.672L46.1076 32.184L45.7716 31.56H50.0316V33H44.2716ZM53.4032 33.096C52.8512 33.096 52.3192 33.032 51.8072 32.904C51.3032 32.768 50.9032 32.6 50.6072 32.4L51.2312 31.056C51.5272 31.24 51.8752 31.392 52.2752 31.512C52.6832 31.624 53.0832 31.68 53.4752 31.68C53.9072 31.68 54.2112 31.628 54.3872 31.524C54.5712 31.42 54.6632 31.276 54.6632 31.092C54.6632 30.94 54.5912 30.828 54.4472 30.756C54.3112 30.676 54.1272 30.616 53.8952 30.576C53.6632 30.536 53.4072 30.496 53.1272 30.456C52.8552 30.416 52.5792 30.364 52.2992 30.3C52.0192 30.228 51.7632 30.124 51.5312 29.988C51.2992 29.852 51.1112 29.668 50.9672 29.436C50.8312 29.204 50.7632 28.904 50.7632 28.536C50.7632 28.128 50.8792 27.768 51.1112 27.456C51.3512 27.144 51.6952 26.9 52.1432 26.724C52.5912 26.54 53.1272 26.448 53.7512 26.448C54.1912 26.448 54.6392 26.496 55.0952 26.592C55.5512 26.688 55.9312 26.828 56.2352 27.012L55.6112 28.344C55.2992 28.16 54.9832 28.036 54.6632 27.972C54.3512 27.9 54.0472 27.864 53.7512 27.864C53.3352 27.864 53.0312 27.92 52.8392 28.032C52.6472 28.144 52.5512 28.288 52.5512 28.464C52.5512 28.624 52.6192 28.744 52.7552 28.824C52.8992 28.904 53.0872 28.968 53.3192 29.016C53.5512 29.064 53.8032 29.108 54.0752 29.148C54.3552 29.18 54.6352 29.232 54.9152 29.304C55.1952 29.376 55.4472 29.48 55.6712 29.616C55.9032 29.744 56.0912 29.924 56.2352 30.156C56.3792 30.38 56.4512 30.676 56.4512 31.044C56.4512 31.444 56.3312 31.8 56.0912 32.112C55.8512 32.416 55.5032 32.656 55.0472 32.832C54.5992 33.008 54.0512 33.096 53.4032 33.096ZM60.6422 35.424C60.0342 35.424 59.4462 35.348 58.8782 35.196C58.3182 35.052 57.8502 34.832 57.4742 34.536L58.2182 33.192C58.4902 33.416 58.8342 33.592 59.2502 33.72C59.6742 33.856 60.0902 33.924 60.4982 33.924C61.1622 33.924 61.6422 33.776 61.9382 33.48C62.2422 33.184 62.3942 32.744 62.3942 32.16V31.188L62.5142 29.568L62.4902 27.936V26.544H64.2662V31.92C64.2662 33.12 63.9542 34.004 63.3302 34.572C62.7062 35.14 61.8102 35.424 60.6422 35.424ZM60.3542 32.688C59.7542 32.688 59.2102 32.56 58.7222 32.304C58.2422 32.04 57.8542 31.676 57.5582 31.212C57.2702 30.74 57.1262 30.192 57.1262 29.568C57.1262 28.936 57.2702 28.388 57.5582 27.924C57.8542 27.452 58.2422 27.088 58.7222 26.832C59.2102 26.576 59.7542 26.448 60.3542 26.448C60.8982 26.448 61.3782 26.56 61.7942 26.784C62.2102 27 62.5342 27.34 62.7662 27.804C62.9982 28.26 63.1142 28.848 63.1142 29.568C63.1142 30.28 62.9982 30.868 62.7662 31.332C62.5342 31.788 62.2102 32.128 61.7942 32.352C61.3782 32.576 60.8982 32.688 60.3542 32.688ZM60.7262 31.152C61.0542 31.152 61.3462 31.088 61.6022 30.96C61.8582 30.824 62.0582 30.636 62.2022 30.396C62.3462 30.156 62.4182 29.88 62.4182 29.568C62.4182 29.248 62.3462 28.972 62.2022 28.74C62.0582 28.5 61.8582 28.316 61.6022 28.188C61.3462 28.052 61.0542 27.984 60.7262 27.984C60.3982 27.984 60.1062 28.052 59.8502 28.188C59.5942 28.316 59.3902 28.5 59.2382 28.74C59.0942 28.972 59.0222 29.248 59.0222 29.568C59.0222 29.88 59.0942 30.156 59.2382 30.396C59.3902 30.636 59.5942 30.824 59.8502 30.96C60.1062 31.088 60.3982 31.152 60.7262 31.152ZM69.9685 33V31.74L69.8485 31.464V29.208C69.8485 28.808 69.7245 28.496 69.4765 28.272C69.2365 28.048 68.8645 27.936 68.3605 27.936C68.0165 27.936 67.6765 27.992 67.3405 28.104C67.0125 28.208 66.7325 28.352 66.5005 28.536L65.8285 27.228C66.1805 26.98 66.6045 26.788 67.1005 26.652C67.5965 26.516 68.1005 26.448 68.6125 26.448C69.5965 26.448 70.3605 26.68 70.9045 27.144C71.4485 27.608 71.7205 28.332 71.7205 29.316V33H69.9685ZM68.0005 33.096C67.4965 33.096 67.0645 33.012 66.7045 32.844C66.3445 32.668 66.0685 32.432 65.8765 32.136C65.6845 31.84 65.5885 31.508 65.5885 31.14C65.5885 30.756 65.6805 30.42 65.8645 30.132C66.0565 29.844 66.3565 29.62 66.7645 29.46C67.1725 29.292 67.7045 29.208 68.3605 29.208H70.0765V30.3H68.5645C68.1245 30.3 67.8205 30.372 67.6525 30.516C67.4925 30.66 67.4125 30.84 67.4125 31.056C67.4125 31.296 67.5045 31.488 67.6885 31.632C67.8805 31.768 68.1405 31.836 68.4685 31.836C68.7805 31.836 69.0605 31.764 69.3085 31.62C69.5565 31.468 69.7365 31.248 69.8485 30.96L70.1365 31.824C70.0005 32.24 69.7525 32.556 69.3925 32.772C69.0325 32.988 68.5685 33.096 68.0005 33.096ZM72.9708 33V31.872L76.7868 27.36L77.1108 27.984H73.0548V26.544H78.6228V27.672L74.8068 32.184L74.4708 31.56H78.7308V33H72.9708ZM82.5938 33.096C81.8338 33.096 81.2418 32.904 80.8178 32.52C80.3938 32.128 80.1818 31.548 80.1818 30.78V25.116H82.0538V30.756C82.0538 31.028 82.1258 31.24 82.2698 31.392C82.4138 31.536 82.6098 31.608 82.8578 31.608C83.1538 31.608 83.4058 31.528 83.6138 31.368L84.1178 32.688C83.9258 32.824 83.6938 32.928 83.4218 33C83.1578 33.064 82.8818 33.096 82.5938 33.096ZM79.1858 28.128V26.688H83.6618V28.128H79.1858ZM89.1287 33V31.74L89.0087 31.464V29.208C89.0087 28.808 88.8847 28.496 88.6367 28.272C88.3967 28.048 88.0247 27.936 87.5207 27.936C87.1767 27.936 86.8367 27.992 86.5007 28.104C86.1727 28.208 85.8927 28.352 85.6607 28.536L84.9887 27.228C85.3407 26.98 85.7647 26.788 86.2607 26.652C86.7567 26.516 87.2607 26.448 87.7727 26.448C88.7567 26.448 89.5207 26.68 90.0647 27.144C90.6087 27.608 90.8807 28.332 90.8807 29.316V33H89.1287ZM87.1607 33.096C86.6567 33.096 86.2247 33.012 85.8647 32.844C85.5047 32.668 85.2287 32.432 85.0367 32.136C84.8447 31.84 84.7487 31.508 84.7487 31.14C84.7487 30.756 84.8407 30.42 85.0247 30.132C85.2167 29.844 85.5167 29.62 85.9247 29.46C86.3327 29.292 86.8647 29.208 87.5207 29.208H89.2367V30.3H87.7247C87.2847 30.3 86.9807 30.372 86.8127 30.516C86.6527 30.66 86.5727 30.84 86.5727 31.056C86.5727 31.296 86.6647 31.488 86.8487 31.632C87.0407 31.768 87.3007 31.836 87.6287 31.836C87.9407 31.836 88.2207 31.764 88.4687 31.62C88.7167 31.468 88.8967 31.248 89.0087 30.96L89.2967 31.824C89.1607 32.24 88.9127 32.556 88.5527 32.772C88.1927 32.988 87.7287 33.096 87.1607 33.096ZM95.2149 33.096C94.4549 33.096 93.8629 32.904 93.4389 32.52C93.0149 32.128 92.8029 31.548 92.8029 30.78V25.116H94.6749V30.756C94.6749 31.028 94.7469 31.24 94.8909 31.392C95.0349 31.536 95.2309 31.608 95.4789 31.608C95.7749 31.608 96.0269 31.528 96.2349 31.368L96.7389 32.688C96.5469 32.824 96.3149 32.928 96.0429 33C95.7789 33.064 95.5029 33.096 95.2149 33.096ZM91.8069 28.128V26.688H96.2829V28.128H91.8069ZM101.75 33V31.74L101.63 31.464V29.208C101.63 28.808 101.506 28.496 101.258 28.272C101.018 28.048 100.646 27.936 100.142 27.936C99.7978 27.936 99.4578 27.992 99.1218 28.104C98.7938 28.208 98.5138 28.352 98.2818 28.536L97.6098 27.228C97.9618 26.98 98.3858 26.788 98.8818 26.652C99.3778 26.516 99.8818 26.448 100.394 26.448C101.378 26.448 102.142 26.68 102.686 27.144C103.23 27.608 103.502 28.332 103.502 29.316V33H101.75ZM99.7818 33.096C99.2778 33.096 98.8458 33.012 98.4858 32.844C98.1258 32.668 97.8498 32.432 97.6578 32.136C97.4658 31.84 97.3698 31.508 97.3698 31.14C97.3698 30.756 97.4618 30.42 97.6458 30.132C97.8378 29.844 98.1378 29.62 98.5458 29.46C98.9538 29.292 99.4858 29.208 100.142 29.208H101.858V30.3H100.346C99.9058 30.3 99.6018 30.372 99.4338 30.516C99.2738 30.66 99.1938 30.84 99.1938 31.056C99.1938 31.296 99.2858 31.488 99.4698 31.632C99.6618 31.768 99.9218 31.836 100.25 31.836C100.562 31.836 100.842 31.764 101.09 31.62C101.338 31.468 101.518 31.248 101.63 30.96L101.918 31.824C101.782 32.24 101.534 32.556 101.174 32.772C100.814 32.988 100.35 33.096 99.7818 33.096ZM107.368 33.096C106.816 33.096 106.284 33.032 105.772 32.904C105.268 32.768 104.868 32.6 104.572 32.4L105.196 31.056C105.492 31.24 105.84 31.392 106.24 31.512C106.648 31.624 107.048 31.68 107.44 31.68C107.872 31.68 108.176 31.628 108.352 31.524C108.536 31.42 108.628 31.276 108.628 31.092C108.628 30.94 108.556 30.828 108.412 30.756C108.276 30.676 108.092 30.616 107.86 30.576C107.628 30.536 107.372 30.496 107.092 30.456C106.82 30.416 106.544 30.364 106.264 30.3C105.984 30.228 105.728 30.124 105.496 29.988C105.264 29.852 105.076 29.668 104.932 29.436C104.796 29.204 104.728 28.904 104.728 28.536C104.728 28.128 104.844 27.768 105.076 27.456C105.316 27.144 105.66 26.9 106.108 26.724C106.556 26.54 107.092 26.448 107.716 26.448C108.156 26.448 108.604 26.496 109.06 26.592C109.516 26.688 109.896 26.828 110.2 27.012L109.576 28.344C109.264 28.16 108.948 28.036 108.628 27.972C108.316 27.9 108.012 27.864 107.716 27.864C107.3 27.864 106.996 27.92 106.804 28.032C106.612 28.144 106.516 28.288 106.516 28.464C106.516 28.624 106.584 28.744 106.72 28.824C106.864 28.904 107.052 28.968 107.284 29.016C107.516 29.064 107.768 29.108 108.04 29.148C108.32 29.18 108.6 29.232 108.88 29.304C109.16 29.376 109.412 29.48 109.636 29.616C109.868 29.744 110.056 29.924 110.2 30.156C110.344 30.38 110.416 30.676 110.416 31.044C110.416 31.444 110.296 31.8 110.056 32.112C109.816 32.416 109.468 32.656 109.012 32.832C108.564 33.008 108.016 33.096 107.368 33.096ZM112.279 33.096C111.959 33.096 111.683 32.988 111.451 32.772C111.227 32.548 111.115 32.264 111.115 31.92C111.115 31.576 111.227 31.3 111.451 31.092C111.683 30.876 111.959 30.768 112.279 30.768C112.607 30.768 112.883 30.876 113.107 31.092C113.331 31.3 113.443 31.576 113.443 31.92C113.443 32.264 113.331 32.548 113.107 32.772C112.883 32.988 112.607 33.096 112.279 33.096ZM118.636 26.448C119.148 26.448 119.604 26.552 120.004 26.76C120.412 26.96 120.732 27.272 120.964 27.696C121.196 28.112 121.312 28.648 121.312 29.304V33H119.44V29.592C119.44 29.072 119.324 28.688 119.092 28.44C118.868 28.192 118.548 28.068 118.132 28.068C117.836 28.068 117.568 28.132 117.328 28.26C117.096 28.38 116.912 28.568 116.776 28.824C116.648 29.08 116.584 29.408 116.584 29.808V33H114.712V24.096H116.584V28.332L116.164 27.792C116.396 27.36 116.728 27.028 117.16 26.796C117.592 26.564 118.084 26.448 118.636 26.448ZM125.733 33.096C125.197 33.096 124.717 32.992 124.293 32.784C123.877 32.576 123.553 32.26 123.321 31.836C123.089 31.404 122.973 30.856 122.973 30.192V26.544H124.845V29.916C124.845 30.452 124.957 30.848 125.181 31.104C125.413 31.352 125.737 31.476 126.153 31.476C126.441 31.476 126.697 31.416 126.921 31.296C127.145 31.168 127.321 30.976 127.449 30.72C127.577 30.456 127.641 30.128 127.641 29.736V26.544H129.513V33H127.737V31.224L128.061 31.74C127.845 32.188 127.525 32.528 127.101 32.76C126.685 32.984 126.229 33.096 125.733 33.096Z" fill="white"/>
<g clip-path="url(#clip0_2007_72)">
<path d="M73.515 13.754C73.5134 13.9869 73.4202 14.2098 73.2555 14.3745C73.0908 14.5392 72.8679 14.6324 72.635 14.634H69.087C68.854 14.6327 68.6309 14.5396 68.4662 14.3748C68.3014 14.2101 68.2083 13.987 68.207 13.754C68.2086 13.5211 68.3018 13.2982 68.4665 13.1335C68.6312 12.9688 68.8541 12.8756 69.087 12.874H72.635C72.8676 12.8766 73.0899 12.9701 73.2544 13.1346C73.4189 13.2991 73.5124 13.5214 73.515 13.754ZM61.139 13.754C61.1377 13.987 61.0446 14.2101 60.8798 14.3748C60.7151 14.5396 60.492 14.6327 60.259 14.634H56.711C56.478 14.6327 56.2549 14.5396 56.0902 14.3748C55.9254 14.2101 55.8323 13.987 55.831 13.754C55.8326 13.5211 55.9258 13.2982 56.0905 13.1335C56.2552 12.9688 56.4781 12.8756 56.711 12.874H60.259C60.4917 12.8758 60.7144 12.9692 60.8789 13.1338C61.0434 13.2985 61.1364 13.5213 61.138 13.754H61.139ZM59.299 5.587H70.703L72.102 9.149L72.033 9.145H57.899L59.299 5.587ZM76.979 8.293C76.9212 7.94565 76.7279 7.63541 76.4417 7.43033C76.1554 7.22525 75.7995 7.14206 75.452 7.199L75.46 7.198L73.277 7.554C73.2453 7.56113 73.2139 7.56981 73.183 7.58L73.188 7.578L71.782 4H58.216L56.81 7.578C56.7814 7.56903 56.7523 7.56136 56.723 7.555L54.538 7.198C54.1926 7.14324 53.8396 7.22671 53.5553 7.43034C53.271 7.63397 53.0783 7.94137 53.019 8.286L53.018 8.294C52.9632 8.63938 53.0467 8.99244 53.2503 9.27673C53.454 9.56103 53.7614 9.75368 54.106 9.813L54.114 9.814L55.385 10.023C54.5781 10.7974 54.1106 11.8599 54.085 12.978V19.069H58.485V16.769H70.914V19.069H75.314V15.821C75.332 15.745 75.342 15.658 75.342 15.568V12.982C75.3181 11.904 74.8843 10.8755 74.129 10.106L74.13 10.107L75.896 9.817C76.243 9.75868 76.5527 9.56525 76.7574 9.27905C76.9621 8.99285 77.045 8.63721 76.988 8.29L76.989 8.298L76.979 8.293Z" fill="white"/>
</g>
<defs>
<clipPath id="clip0_2007_72">
<rect width="24" height="24" fill="white" transform="translate(53)"/>
</clipPath>
</defs>
</svg>
