<svg width="21" height="21" viewBox="0 0 21 21" fill="none" xmlns="http://www.w3.org/2000/svg">
<g id="Phone">
<path id="Vector" d="M19.0214 14.362C18.8751 15.4736 18.3293 16.4939 17.4857 17.2323C16.6422 17.9708 15.5586 18.377 14.4375 18.375C7.92422 18.375 2.625 13.0758 2.625 6.56249C2.62299 5.44136 3.02916 4.35783 3.76764 3.51428C4.50612 2.67073 5.52642 2.12485 6.63797 1.97858C6.91905 1.94426 7.2037 2.00176 7.44941 2.14251C7.69513 2.28326 7.88873 2.4997 8.00133 2.75952L9.73383 6.62729V6.63714C9.82003 6.83602 9.85563 7.05316 9.83746 7.26917C9.81928 7.48517 9.74788 7.69331 9.62965 7.87499C9.61488 7.89714 9.5993 7.91764 9.58289 7.93815L7.875 9.96268C8.48941 11.2112 9.79535 12.5057 11.0603 13.1217L13.0569 11.4228C13.0765 11.4064 13.0971 11.391 13.1184 11.3769C13.3 11.2558 13.5088 11.1819 13.7261 11.1619C13.9434 11.1418 14.1622 11.1762 14.3629 11.2621L14.3735 11.267L18.238 12.9987C18.4983 13.1109 18.7153 13.3043 18.8565 13.55C18.9977 13.7958 19.0555 14.0806 19.0214 14.362Z" fill="#15A81F"/>
</g>
</svg>
