<svg width="21" height="21" viewBox="0 0 21 21" fill="none" xmlns="http://www.w3.org/2000/svg">
<g id="Clock">
<path id="Vector" d="M10.5 1.96875C8.81268 1.96875 7.16325 2.4691 5.7603 3.40652C4.35734 4.34395 3.26387 5.67635 2.61816 7.23523C1.97245 8.79411 1.8035 10.5095 2.13268 12.1644C2.46186 13.8193 3.27438 15.3394 4.4675 16.5325C5.66062 17.7256 7.18074 18.5381 8.83564 18.8673C10.4905 19.1965 12.2059 19.0276 13.7648 18.3818C15.3237 17.7361 16.6561 16.6427 17.5935 15.2397C18.5309 13.8368 19.0313 12.1873 19.0313 10.5C19.0289 8.2381 18.1293 6.06954 16.5299 4.47013C14.9305 2.87073 12.7619 1.97114 10.5 1.96875ZM15.0938 11.1562H10.5C10.326 11.1562 10.159 11.0871 10.036 10.964C9.91289 10.841 9.84375 10.674 9.84375 10.5V5.90625C9.84375 5.7322 9.91289 5.56528 10.036 5.44221C10.159 5.31914 10.326 5.25 10.5 5.25C10.6741 5.25 10.841 5.31914 10.964 5.44221C11.0871 5.56528 11.1563 5.7322 11.1563 5.90625V9.84375H15.0938C15.2678 9.84375 15.4347 9.91289 15.5578 10.036C15.6809 10.159 15.75 10.326 15.75 10.5C15.75 10.674 15.6809 10.841 15.5578 10.964C15.4347 11.0871 15.2678 11.1562 15.0938 11.1562Z" fill="#15A81F"/>
</g>
</svg>
